# xmcd
#
# Track frame offsets: 
#        150
#        19531
#        35563
#        48999
#        66885
#        90106
#        106947
#        123304
#        141415
#        157806
#        172221
#        181031
#
# Disc length: 2656 seconds
#
# Revision: 4
# Processed by: cddbd v1.5.2PL0 Copyright (c) Steve Scherf et al.
# Submitted via: ExactAudioCopyFreeDBPlugin 1.0
#
DISCID=920a5e0c
DTITLE=Françoise Hardy - Parenthèses
DYEAR=2006
DGENRE=Chanson
TTITLE0=Que reste-t-il de nos amours?  (avec Alain Bashung)
TTITLE1=Modern Style (avec Alain Delon)
TTITLE2=Amour, toujours, tendresse, caresses...  (avec Jacques Dutronc
TTITLE2=)
TTITLE3=Partir quand même (avec Julio Iglesias)
TTITLE4=My Beautiful Demon (avec Ben Christophers)
TTITLE5=Soleil (avec Alain Souchon)
TTITLE6=Cet enfant que je t'avais fait (avec Rodolphe Burger)
TTITLE7=Le fou de la reine (avec Henri Salvador)
TTITLE8=Les sédiments... (Arthur H)
TTITLE9=La rue du babouin (avec Maurane)
TTITLE10=La valse des regrets  (avec Hélène Grimaud)
TTITLE11=Des lendemains qui chantent (avec Benjamin Biolay)
EXTD=
EXTT0=
EXTT1=
EXTT2=
EXTT3=
EXTT4=
EXTT5=
EXTT6=
EXTT7=
EXTT8=
EXTT9=
EXTT10=
EXTT11=
PLAYORDER=
